<svg xmlns="http://www.w3.org/2000/svg" width="32" height="32">
  <path fill="#4e1fe9" d="M16 15.996c-.971 0-1.755-.787-1.755-1.756a1.755 1.755 0 1 1 3.51-.001c0 .97-.784 1.757-1.755 1.757zm3.888-.028A14.08 14.08 0 0 0 16 6.237a14.076 14.076 0 0 0-3.888 9.731c0 1.729.312 3.38.88 4.911-.824 1.2-1.432 2.88-1.7 4.821.852-1.023 1.896-1.741 3.056-2.121.484.74 1.04 1.461 1.652 2.099a14.588 14.588 0 0 0 1.652-2.12c1.16.361 2.204 1.101 3.053 2.101-.265-1.941-.873-3.621-1.7-4.82.569-1.54.88-3.18.88-4.92zM16 29.333C8.636 29.333 2.667 23.364 2.667 16S8.636 2.667 16 2.667 29.333 8.636 29.333 16 23.364 29.333 16 29.333zM16 0C7.164 0 0 7.164 0 16s7.164 16 16 16 16-7.164 16-16S24.836 0 16 0z"/>
</svg>